<?xml version="1.0" encoding="utf-8"?>
<!-- Generator: Adobe Illustrator 16.0.4, SVG Export Plug-In . SVG Version: 6.00 Build 0)  -->
<!DOCTYPE svg PUBLIC "-//W3C//DTD SVG 1.1//EN" "http://www.w3.org/Graphics/SVG/1.1/DTD/svg11.dtd">
<svg version="1.1" id="Layer_1" xmlns="http://www.w3.org/2000/svg" xmlns:xlink="http://www.w3.org/1999/xlink" x="0px" y="0px"
	 width="361.971px" height="361.971px" viewBox="0 0 361.971 361.971" enable-background="new 0 0 361.971 361.971"
	 xml:space="preserve">
<linearGradient id="SVGID_1_" gradientUnits="userSpaceOnUse" x1="180.9854" y1="362.6748" x2="180.9853" y2="-1.2397">
	<stop  offset="0" style="stop-color:#FFFFFF"/>
	<stop  offset="1" style="stop-color:#000000"/>
</linearGradient>
<path fill="url(#SVGID_1_)" stroke="#000000" stroke-miterlimit="10" d="M180.985,0C81.03,0,0,81.03,0,180.985
	c0,99.955,81.03,180.985,180.985,180.985s180.985-81.03,180.985-180.985C361.971,81.03,280.941,0,180.985,0z M215.605,80.985h23.239
	v73.944h-23.239V80.985z M121.605,80.985h23.239v73.944h-23.239V80.985z M180.225,321.126c-77.397,0-140.141-62.743-140.141-140.141
	h21.831c0,65.34,52.97,118.31,118.31,118.31s118.31-52.969,118.31-118.31h21.831C320.365,258.383,257.622,321.126,180.225,321.126z"
	/>
</svg>
